# xmcd CD database file
#
# Track frame offsets:
#	150
#	24998
#	50880
#	75383
#	94431
#	116140
#	139210
#	159819
#	188297
#	209916
#
# Disc length: 3058 seconds
#
# Revision: 1
# Processed by: cddbd v1.4PL0 Copyright (c) Steve Scherf et al.
# Submitted via: CDex 1.50Beta7
#
DISCID=850bf00a
DTITLE=Tony Joe White - Snakey
DYEAR=2002
DGENRE=Blues
TTITLE0=Feeling Snakey
TTITLE1=Bayou Bleus
TTITLE2=Nothing I Would Not Do
TTITLE3=All Those Tomorrows
TTITLE4=Dark Horse Coming
TTITLE5=The Organic Shuffle
TTITLE6=Living Off The Land
TTITLE7=Rico
TTITLE8=Hard Time With Sunday
TTITLE9=Taste Like Chicken
EXTD=© 2002, Tony Joe White Music Inc.\nAll songs written by Tony Joe White except tracks 2 and 4.\nProduced by Tony Joe White.\nCo-produced, Mixed and Mastered by Chet Hinesley. YEAR: 2002
EXTT0=
EXTT1=Written by Tony Joe and Leann White.\n
EXTT2=
EXTT3=Written by Tony Joe White and Chet Hinesley.\n
EXTT4=
EXTT5=
EXTT6=
EXTT7=
EXTT8=
EXTT9=
PLAYORDER=
